<svg width="32" height="32" viewBox="0 0 32 32" fill="none" xmlns="http://www.w3.org/2000/svg">
  <rect width="32" height="32" rx="16" fill="#F7931A"/>
  <path d="M22.9752 14.3139C23.2359 12.1481 21.5574 10.9982 19.2598 10.252L20.0238 7.11998L18.0499 6.65279L17.3086 9.70607C16.7999 9.57595 16.2776 9.45443 15.7592 9.33413L16.504 6.26563L14.5321 5.79844L13.767 8.93045C13.3472 8.83064 12.9347 8.73205 12.5338 8.62915L12.5359 8.62016L9.87787 7.97749L9.37848 10.085C9.37848 10.085 10.8624 10.3996 10.8343 10.4177C11.6192 10.609 11.7653 11.1239 11.7438 11.5325L10.873 15.0641C10.9248 15.0766 10.9917 15.0951 11.0648 15.1253C11.0033 15.1099 10.9366 15.0934 10.8677 15.077L9.67182 19.8272C9.57201 20.0673 9.32562 20.4219 8.77713 20.2908C8.7959 20.3172 7.32488 19.9542 7.32488 19.9542L6.39258 22.2057L8.90035 22.816C9.36754 22.9377 9.82574 23.0658 10.2757 23.1855L9.50506 26.3548L11.477 26.8219L12.2419 23.6889C12.7683 23.8366 13.2782 23.9719 13.777 24.0985L13.0132 27.2199L14.9881 27.687L15.7587 24.5229C18.803 25.0307 21.0838 24.8154 22.0727 22.0467C22.8768 19.827 22.0685 18.5676 20.4503 17.7666C21.6477 17.4634 22.5398 16.6707 22.7752 14.3139ZM18.5306 20.6311C17.956 22.851 14.4931 21.6495 13.1945 21.3327L14.215 17.1571C15.5135 17.4762 19.1237 18.3204 18.5306 20.6311ZM19.1064 14.2763C18.5805 16.302 15.6957 15.2669 14.629 15.0011L15.552 11.1851C16.6188 11.4509 19.6483 12.1641 19.1064 14.2763Z" fill="white"/>
</svg>
